<?xml version="1.0" encoding="utf-8"?>
<!-- Uploaded to: SVG Repo, www.svgrepo.com, Generator: SVG Repo Mixer Tools -->
<svg fill="#000000" width="800px" height="800px" viewBox="0 0 32 32" version="1.1" xmlns="http://www.w3.org/2000/svg">
<title>clover</title>
<path d="M27.673 22.512c-1.335-4.472-7.5-6.972-13.185-8.018 1.102 4.904-0.19 8.2 1.062 12.404 1.335 4.482 6.432 4.718 7.396 0.396 3.484 3.202 5.979-0.587 4.727-4.782v0zM3.211 18.719c2.608-3.377 7.070-5.365 12.123-3.545-2.401 5.629-0.687 9.648-3.117 12.749-2.591 3.305-7.047 1.245-6.484-2.943-4.026 1.236-4.924-3.149-2.522-6.261zM10.149 2.692c4.181 2.417 5.388 7.335 5.1 13.008-5.661-3.251-7.287-0.387-11.363-2.073-4.471-1.849-3.5-7.525 0.719-7.423-2.792-4.235 1.621-5.779 5.543-3.512zM21.565 3.127c-4.429 1.107-6.606 6.399-6.615 12.311 6.15-1.522 8.49 2.582 12.73 1.544 4.52-1.107 4.016-6.766-0.675-8.044 2.856-3.427-1.213-6.867-5.44-5.81v0z"></path>
</svg>